<?xml version="1.0" standalone="no"?>
<!DOCTYPE svg PUBLIC "-//W3C//DTD SVG 20010904//EN"
        "http://www.w3.org/TR/2001/REC-SVG-20010904/DTD/svg10.dtd">
<svg version="1.0" xmlns="http://www.w3.org/2000/svg"
     width="700.000000pt" height="700.000000pt" viewBox="0 0 700.000000 700.000000"
     preserveAspectRatio="xMidYMid meet">
    <metadata>
        Created by potrace 1.11, written by Peter Selinger 2001-2013
    </metadata>
    <g transform="translate(0.000000,700.000000) scale(0.100000,-0.100000)"
       fill="#000000" stroke="none">
        <path d="M1128 6415 c-2 -2 -30 -5 -63 -9 -73 -8 -222 -78 -280 -133 -88 -82
-145 -171 -180 -283 -17 -52 -18 -171 -21 -1880 -2 -1547 -1 -1836 11 -1895
41 -199 192 -367 394 -440 55 -20 85 -20 2476 -23 1768 -2 2436 0 2480 8 33 7
98 29 144 51 155 72 280 231 315 399 11 54 13 386 11 1895 -2 1668 -4 1835
-19 1881 -70 218 -215 359 -425 412 -70 18 -169 19 -2457 19 -1311 0 -2385 -1
-2386 -2z m4699 -588 c5 -5 9 -2791 4 -2890 -1 -16 -117 -17 -2333 -15 l-2331
3 -1 1448 c-1 1103 2 1450 11 1455 15 9 4641 7 4650 -1z"/>
        <path d="M2548 1446 c-58 -16 -118 -55 -152 -99 -46 -60 -59 -105 -62 -217 -1
-58 -3 -112 -3 -121 -1 -8 -53 -69 -117 -135 -64 -65 -124 -135 -134 -155 -22
-41 -38 -123 -33 -165 13 -106 90 -206 187 -243 50 -19 83 -19 1276 -18 l1225
2 57 28 c106 52 162 143 161 262 0 104 -25 147 -166 290 l-119 120 -2 121 c-2
109 -5 127 -30 177 -32 67 -90 120 -160 146 -49 19 -84 20 -966 20 -708 0
-926 -3 -962 -13z"/>
    </g>
</svg>
